<?xml version="1.0" encoding="UTF-8"?>
<svg id="uuid-15ec86a9-1990-4018-9d81-aa695db97afb" data-name="Layer 2" xmlns="http://www.w3.org/2000/svg" width="107.1" height="20.8" xmlns:xlink="http://www.w3.org/1999/xlink" viewBox="0 0 107.1 20.8">
  <defs>
    <style>
      .uuid-a3304cc8-5501-4dd3-bf1e-3c3b1c543c16 {
        fill: url(#uuid-2c740211-5a8d-487b-b992-7d8c15ddf218);
      }

      .uuid-c4ebd3e8-399c-4989-b62c-18b6bd13d461 {
        fill: url(#uuid-965fc7e9-760f-4c8f-8cf6-20afd79b033b);
      }
    </style>
    <linearGradient id="uuid-965fc7e9-760f-4c8f-8cf6-20afd79b033b" x1="88.3" y1="19.7" x2="104.2" y2="2.3" gradientUnits="userSpaceOnUse">
      <stop offset="0" stop-color="#6aa1ff"/>
      <stop offset=".5" stop-color="#883fff"/>
      <stop offset="1" stop-color="#ef00ff"/>
    </linearGradient>
    <linearGradient id="uuid-2c740211-5a8d-487b-b992-7d8c15ddf218" x1="92.9" y1="23.9" x2="108.7" y2="6.4" xlink:href="#uuid-965fc7e9-760f-4c8f-8cf6-20afd79b033b"/>
  </defs>
  <g id="uuid-e7d17385-2be7-435b-b755-0293e6ef5be8" data-name="Layer 1">
    <g>
      <g>
        <path d="M0,10.5C0,3.9,4.7,0,10.5,0s6.5,1.6,8.1,3.5l-2.4,2.3c-1.3-1.5-3.3-2.5-5.6-2.5-3.8,0-6.6,2.5-6.6,7s2.8,7.1,6.8,7.1,3.6-.5,4.7-1.5v-3.5h-4.8v-3.1h8.5v8.1c-2.2,2.2-5.2,3.3-8.5,3.3-5.9,0-10.6-3.6-10.6-10.3Z"/>
        <path d="M21.8,13.6c0-4.5,3.2-7.5,7.5-7.5s6.8,2.9,6.8,6.7,0,1.7,0,2h-10.2c.4,2.2,2,3.1,4,3.1s3.3-.8,4.1-1.6l1.5,2.1c-.8.9-3.2,2.4-6.2,2.4s-7.4-2.6-7.4-7.2ZM29.1,8.9c-2.2,0-3.1,1.6-3.4,3.3h6.7c0-1.5-.9-3.3-3.3-3.3Z"/>
        <path d="M39.3,15.8v-6.5h-2v-2.9h2V2.4h3.7v4h3.3v2.9h-3.3v5.9c0,1.8.3,2.6,1.7,2.6s1-.1,1.4-.3l.2,2.9c-.8.3-1.8.5-2.8.5-3.4,0-4.3-1.8-4.3-5Z"/>
        <path d="M48.1,16.5c0-3.1,2.8-4.2,5.7-4.4l3.4-.2v-.4c0-1.6-1.1-2.6-3.2-2.6s-2.7.5-4,1.3l-1.2-2.6c1.9-1.1,3.8-1.5,5.7-1.5,4.2,0,6.3,2,6.3,6.3v8.1h-3.6v-1.6c-.6,1-2.2,2-4.4,2s-4.9-1.5-4.9-4.3ZM57.3,16.7v-2.6l-2.5.2c-2,.1-2.9.8-2.9,2s1,2,2.3,2,2.6-.8,3.1-1.5Z"/>
        <path d="M62.2,6.4h3.8l2.7,9.8,3.3-9.8h3l3.3,9.8,2.7-9.8h3.8l-4.5,14.1h-3.7l-3.1-9.5-3.1,9.5h-3.7l-4.5-14.1Z"/>
      </g>
      <g>
        <path class="uuid-c4ebd3e8-399c-4989-b62c-18b6bd13d461" d="M86.7,16.5c0-3.1,2.8-4.2,5.7-4.4l3.4-.2v-.4c0-1.6-1.1-2.6-3.2-2.6s-2.7.5-4,1.3l-1.2-2.6c1.9-1.1,3.8-1.5,5.7-1.5,4.2,0,6.3,2,6.3,6.3v8.1h-3.6v-1.6c-.6,1-2.2,2-4.4,2s-4.9-1.5-4.9-4.3ZM95.8,16.7v-2.6l-2.5.2c-2,.1-2.9.8-2.9,2s1,2,2.3,2,2.6-.8,3.1-1.5Z"/>
        <path class="uuid-a3304cc8-5501-4dd3-bf1e-3c3b1c543c16" d="M102.6,2.1c0-1.2.9-2.1,2.2-2.1s2.2.9,2.2,2.1-.9,2.1-2.2,2.1-2.2-.8-2.2-2.1ZM103,6.4h3.7v14.1h-3.7V6.4Z"/>
      </g>
    </g>
  </g>
</svg>